<?xml version="1.0" encoding="UTF-8"?>
<svg id="Layer_1" xmlns="http://www.w3.org/2000/svg" version="1.1" viewBox="0 0 340.33 81.1">
  <!-- Generator: Adobe Illustrator 29.5.0, SVG Export Plug-In . SVG Version: 2.1.0 Build 137)  -->
  <defs>
    <style>
      .st0 {
        fill: #f1f2f2;
      }
    </style>
  </defs>
  <g>
    <path class="st0" d="M99.84,60.54V19.99h16.82c3.01,0,5.54.44,7.59,1.31s3.59,2.07,4.61,3.61c1.02,1.53,1.54,3.33,1.54,5.38,0,1.54-.32,2.92-.97,4.12-.64,1.21-1.53,2.21-2.67,2.99-1.13.79-2.44,1.34-3.91,1.65v.44c1.62.05,3.12.49,4.51,1.29,1.39.81,2.5,1.93,3.35,3.36.84,1.43,1.27,3.13,1.27,5.09,0,2.18-.55,4.12-1.65,5.83-1.1,1.71-2.69,3.05-4.78,4.03-2.09.98-4.64,1.47-7.65,1.47h-18.07ZM109.45,36.7h5.58c1.07,0,2.03-.18,2.87-.54.84-.36,1.51-.88,1.99-1.57.48-.68.72-1.51.72-2.49,0-1.36-.49-2.44-1.47-3.24s-2.3-1.2-3.95-1.2h-5.74v9.04ZM109.45,52.79h6.21c2.16,0,3.75-.41,4.78-1.24,1.02-.83,1.54-1.96,1.54-3.42,0-1.05-.25-1.97-.74-2.75-.49-.78-1.19-1.38-2.11-1.81-.92-.43-2.01-.64-3.28-.64h-6.4v9.85Z"/>
    <path class="st0" d="M145.38,61.09c-1.94,0-3.67-.33-5.19-.99s-2.7-1.66-3.55-2.99c-.85-1.33-1.28-3-1.28-5,0-1.69.29-3.11.88-4.27.59-1.16,1.41-2.11,2.46-2.83,1.05-.73,2.26-1.28,3.62-1.66,1.36-.38,2.81-.64,4.36-.76,1.72-.14,3.11-.3,4.16-.48,1.05-.17,1.82-.43,2.31-.78.49-.34.73-.83.73-1.44v-.11c0-.71-.16-1.31-.49-1.8-.33-.49-.8-.86-1.42-1.12-.62-.25-1.36-.38-2.23-.38s-1.65.13-2.33.38-1.24.62-1.67,1.09c-.44.47-.74,1.03-.93,1.66l-8.6-1.12c.4-1.74,1.18-3.27,2.35-4.59,1.17-1.32,2.7-2.34,4.6-3.08,1.9-.74,4.11-1.1,6.66-1.1,1.89,0,3.65.22,5.29.67,1.64.44,3.08,1.1,4.31,1.96,1.23.86,2.2,1.92,2.89,3.18.69,1.26,1.03,2.71,1.03,4.34v20.66h-8.93v-4.27h-.25c-.54,1.05-1.24,1.93-2.08,2.64-.84.71-1.82,1.25-2.94,1.62s-2.38.56-3.8.56ZM148.26,54.8c1.07,0,2.04-.22,2.9-.65s1.55-1.04,2.06-1.8c.51-.76.76-1.64.76-2.64v-2.91c-.27.15-.61.28-1.02.41s-.86.24-1.35.34c-.49.1-.98.19-1.47.27-.49.08-.96.16-1.42.23-.93.13-1.71.34-2.37.65s-1.15.71-1.5,1.2c-.35.49-.52,1.08-.52,1.77s.17,1.24.52,1.7c.34.46.81.82,1.39,1.06.58.25,1.25.37,2.01.37Z"/>
    <path class="st0" d="M182.48,61.11c-2.6,0-4.89-.37-6.89-1.1-2-.73-3.62-1.8-4.87-3.18-1.25-1.39-2.06-3.05-2.42-5l8.82-1.39c.38,1.32,1.02,2.32,1.93,2.99.91.67,2.17,1.01,3.78,1.01,1.32,0,2.37-.23,3.13-.69.76-.46,1.14-1.08,1.14-1.84,0-.71-.3-1.27-.91-1.7-.61-.43-1.55-.77-2.82-1.02l-5.31-1.04c-3.01-.58-5.27-1.6-6.76-3.06-1.5-1.46-2.25-3.36-2.25-5.7,0-2.03.55-3.77,1.65-5.2,1.1-1.43,2.65-2.54,4.66-3.31,2-.77,4.37-1.16,7.09-1.16,2.54,0,4.75.34,6.63,1.02,1.88.68,3.39,1.65,4.55,2.91,1.15,1.26,1.9,2.76,2.25,4.5l-8.38,1.33c-.27-1.02-.83-1.81-1.67-2.38-.84-.57-1.91-.86-3.2-.86-1.14,0-2.11.23-2.9.69-.79.46-1.18,1.08-1.18,1.87,0,.62.25,1.16.74,1.62.49.46,1.39.82,2.69,1.08l5.83,1.09c3.01.58,5.26,1.54,6.74,2.89,1.48,1.34,2.22,3.12,2.22,5.33,0,2.09-.61,3.9-1.84,5.44-1.22,1.54-2.91,2.74-5.05,3.58-2.14.84-4.6,1.27-7.38,1.27Z"/>
    <path class="st0" d="M215.75,61.11c-3.18,0-5.91-.66-8.19-1.97-2.29-1.32-4.04-3.15-5.27-5.5-1.22-2.35-1.84-5.09-1.84-8.21s.61-5.88,1.84-8.23c1.22-2.35,2.98-4.18,5.27-5.5,2.29-1.32,5.02-1.97,8.19-1.97,1.94,0,3.72.25,5.33.76,1.62.51,3.03,1.23,4.25,2.16s2.2,2.07,2.95,3.4c.75,1.33,1.25,2.83,1.48,4.48l-8.77,1.47c-.14-.8-.37-1.51-.67-2.12-.3-.62-.66-1.14-1.09-1.58-.43-.44-.93-.76-1.5-.98-.57-.22-1.2-.33-1.89-.33-1.22,0-2.25.33-3.1.99-.85.66-1.5,1.62-1.95,2.89-.45,1.26-.67,2.76-.67,4.5s.22,3.25.67,4.52c.44,1.27,1.09,2.25,1.95,2.93.85.68,1.89,1.02,3.1,1.02.71,0,1.34-.11,1.91-.34.56-.23,1.07-.56,1.51-1.01.45-.44.82-.99,1.12-1.63.3-.64.51-1.38.64-2.19l8.77,1.42c-.24,1.71-.73,3.24-1.48,4.59-.75,1.35-1.74,2.51-2.95,3.47s-2.64,1.7-4.26,2.21-3.41.76-5.35.76Z"/>
    <path class="st0" d="M248.93,61.11c-3.17,0-5.91-.66-8.19-1.97-2.29-1.32-4.04-3.15-5.27-5.5-1.22-2.35-1.84-5.09-1.84-8.21s.61-5.88,1.84-8.23c1.22-2.35,2.98-4.18,5.27-5.5,2.29-1.32,5.02-1.97,8.19-1.97s5.91.66,8.19,1.97c2.29,1.32,4.04,3.15,5.25,5.5,1.21,2.35,1.82,5.09,1.82,8.23s-.61,5.86-1.82,8.21c-1.21,2.35-2.97,4.18-5.25,5.5-2.29,1.32-5.02,1.97-8.19,1.97ZM248.93,53.85c1.22,0,2.24-.35,3.08-1.06s1.46-1.7,1.89-2.97c.43-1.27.64-2.75.64-4.44s-.21-3.16-.64-4.42c-.43-1.26-1.06-2.24-1.89-2.93-.83-.69-1.86-1.03-3.08-1.03s-2.24.34-3.08,1.03c-.83.69-1.47,1.67-1.89,2.93-.43,1.26-.64,2.74-.64,4.42s.21,3.17.64,4.44c.43,1.27,1.06,2.26,1.89,2.97s1.86,1.06,3.08,1.06Z"/>
    <path class="st0" d="M269.31,60.54v-30.43h9.23v5.55h.33c.54-2.01,1.45-3.51,2.71-4.48,1.26-.97,2.73-1.46,4.4-1.46.44,0,.89.03,1.38.08.48.05.92.14,1.32.25v8.28c-.45-.16-1.05-.29-1.78-.37-.74-.08-1.39-.12-1.97-.12-1.16,0-2.21.26-3.13.78-.93.52-1.65,1.23-2.18,2.14s-.79,1.97-.79,3.18v16.6h-9.5Z"/>
    <path class="st0" d="M292.94,71.92V30.11h9.39v5.23h.33c.38-.93.94-1.81,1.67-2.67.73-.85,1.67-1.56,2.8-2.11,1.13-.55,2.51-.83,4.12-.83,2.14,0,4.13.56,5.97,1.67s3.33,2.83,4.46,5.14,1.7,5.25,1.7,8.81-.54,6.33-1.63,8.64c-1.09,2.31-2.56,4.06-4.41,5.23-1.85,1.17-3.9,1.76-6.15,1.76-1.54,0-2.88-.26-4.02-.78-1.13-.52-2.07-1.18-2.82-2-.75-.82-1.32-1.68-1.72-2.59h-.22v16.3h-9.5ZM307.97,53.57c1.22,0,2.25-.34,3.09-1.02.84-.68,1.48-1.64,1.92-2.89.44-1.24.65-2.68.65-4.31s-.22-3.09-.65-4.31c-.44-1.22-1.07-2.18-1.91-2.86-.83-.68-1.87-1.02-3.1-1.02s-2.25.33-3.1.99-1.51,1.61-1.96,2.83c-.45,1.22-.68,2.68-.68,4.37s.23,3.09.68,4.33c.45,1.23,1.11,2.19,1.97,2.87s1.89,1.02,3.09,1.02Z"/>
    <path class="st0" d="M335.19,61.11c-1.45,0-2.67-.49-3.66-1.46s-1.48-2.18-1.48-3.63.49-2.64,1.48-3.61,2.21-1.46,3.66-1.46,2.67.49,3.66,1.46c.99.97,1.48,2.17,1.48,3.61s-.5,2.66-1.48,3.63c-.99.97-2.21,1.46-3.66,1.46Z"/>
  </g>
  <g>
    <path class="st0" d="M45.64,58.64l16.04,18.45c-4.78,2.56-10.24,4.01-16.04,4.01v-22.46Z"/>
    <path class="st0" d="M79.71,46.91c0,8.66-3.23,16.56-8.55,22.57-.9,1.02-1.85,1.98-2.87,2.88l-22.65-26.05V12.85c18.81,0,34.07,15.25,34.07,34.06Z"/>
    <polygon class="st0" points="25.51 81.1 0 47.03 0 0 25.51 29.35 25.51 81.1"/>
    <path class="st0" d="M45.64,58.64l16.04,18.45c-4.78,2.56-10.24,4.01-16.04,4.01v-22.46Z"/>
    <path class="st0" d="M61.68,77.09c-4.78,2.56-10.24,4.01-16.04,4.01v-22.46l16.04,18.45Z"/>
    <path class="st0" d="M61.68,77.09c-4.78,2.56-10.24,4.01-16.04,4.01v-22.46l16.04,18.45Z"/>
    <polygon class="st0" points="0 0 25.51 0 45.64 12.85 25.51 19.21 0 0"/>
  </g>
</svg>